<svg width="24" height="24" viewBox="0 0 24 24" fill="none" xmlns="http://www.w3.org/2000/svg">
<path d="M13.4099 12.0002L17.7099 7.71019C18.1021 7.31806 18.1021 6.68231 17.7099 6.29019C17.3178 5.89806 16.6821 5.89806 16.2899 6.29019L11.9999 10.5902L7.70994 6.29019C7.31782 5.89806 6.68206 5.89806 6.28994 6.29019C5.89782 6.68231 5.89782 7.31806 6.28994 7.71019L10.5899 12.0002L6.28994 16.2902C6.10063 16.478 5.99414 16.7335 5.99414 17.0002C5.99414 17.2668 6.10063 17.5224 6.28994 17.7102C6.47771 17.8995 6.7333 18.006 6.99994 18.006C7.26658 18.006 7.52217 17.8995 7.70994 17.7102L11.9999 13.4102L16.2899 17.7102C16.4777 17.8995 16.7333 18.006 16.9999 18.006C17.2666 18.006 17.5222 17.8995 17.7099 17.7102C17.8993 17.5224 18.0057 17.2668 18.0057 17.0002C18.0057 16.7335 17.8993 16.478 17.7099 16.2902L13.4099 12.0002Z" fill="#002930"/>
</svg>
