<svg width="24" height="24" viewBox="0 0 24 24" fill="none" xmlns="http://www.w3.org/2000/svg">
<path fill-rule="evenodd" clip-rule="evenodd" d="M18.7201 13.3997L20.5201 15.2097C20.9824 15.6796 21.1183 16.3807 20.8652 16.9893C20.6122 17.598 20.0193 17.996 19.3601 17.9997H16.0001V18.3397C15.9029 20.4534 14.1141 22.0901 12.0001 21.9997C9.88614 22.0901 8.09737 20.4534 8.00012 18.3397V17.9997H4.64012C3.98095 17.996 3.38806 17.598 3.13499 16.9893C2.88193 16.3807 3.01788 15.6796 3.48012 15.2097L5.28012 13.3997V8.72969C5.28366 6.79086 6.12196 4.94745 7.58084 3.67045C9.03973 2.39345 10.9779 1.80654 12.9001 2.05969C16.2856 2.57858 18.7696 5.51503 18.7201 8.93969V13.3997ZM12.0001 19.9997C13.0035 20.0705 13.8849 19.339 14.0001 18.3397V17.9997H10.0001V18.3397C10.1153 19.339 10.9967 20.0705 12.0001 19.9997Z" fill="#002930"/>
</svg>
